<svg xmlns="http://www.w3.org/2000/svg" xmlns:xlink="http://www.w3.org/1999/xlink" width="446" height="446" viewBox="0 0 446 446">
  <defs>
    <linearGradient id="linear-gradient" x1="0.174" y1="0.186" x2="0.823" y2="0.862" gradientUnits="objectBoundingBox">
      <stop offset="0" stop-color="#ffc743"/>
      <stop offset="1" stop-color="#ff1e1e"/>
    </linearGradient>
    <filter id="联合_132" x="15.606" y="104.52" width="61.092" height="72.482" filterUnits="userSpaceOnUse">
      <feOffset dy="3" input="SourceAlpha"/>
      <feGaussianBlur stdDeviation="3" result="blur"/>
      <feFlood flood-color="#ff8600" flood-opacity="0.188"/>
      <feComposite operator="in" in2="blur"/>
      <feComposite in="SourceGraphic"/>
    </filter>
    <linearGradient id="linear-gradient-2" x1="1" y1="0.636" x2="0" y2="0.623" gradientUnits="objectBoundingBox">
      <stop offset="0" stop-color="#09f"/>
      <stop offset="1" stop-color="#005dff"/>
    </linearGradient>
    <filter id="联合_132-2" x="13.606" y="11.52" width="61.092" height="72.482" filterUnits="userSpaceOnUse">
      <feOffset dy="3" input="SourceAlpha"/>
      <feGaussianBlur stdDeviation="3" result="blur-2"/>
      <feFlood flood-color="#01f" flood-opacity="0.161"/>
      <feComposite operator="in" in2="blur-2"/>
      <feComposite in="SourceGraphic"/>
    </filter>
    <filter id="装修_家居_下水_水龙头_面性" x="98.528" y="104.999" width="67.594" height="61.794" filterUnits="userSpaceOnUse">
      <feOffset dy="3" input="SourceAlpha"/>
      <feGaussianBlur stdDeviation="3" result="blur-3"/>
      <feFlood flood-color="#ff8600" flood-opacity="0.188"/>
      <feComposite operator="in" in2="blur-3"/>
      <feComposite in="SourceGraphic"/>
    </filter>
    <filter id="装修_家居_下水_水龙头_面性-2" x="98.528" y="14.999" width="67.594" height="61.794" filterUnits="userSpaceOnUse">
      <feOffset dy="3" input="SourceAlpha"/>
      <feGaussianBlur stdDeviation="3" result="blur-4"/>
      <feFlood flood-color="#01f" flood-opacity="0.161"/>
      <feComposite operator="in" in2="blur-4"/>
      <feComposite in="SourceGraphic"/>
    </filter>
    <filter id="污水处理" x="193.872" y="107.716" width="64.504" height="59.079" filterUnits="userSpaceOnUse">
      <feOffset dy="3" input="SourceAlpha"/>
      <feGaussianBlur stdDeviation="3" result="blur-5"/>
      <feFlood flood-color="#ff8600" flood-opacity="0.188"/>
      <feComposite operator="in" in2="blur-5"/>
      <feComposite in="SourceGraphic"/>
    </filter>
    <linearGradient id="linear-gradient-6" x1="0.174" y1="0.186" x2="0.823" y2="0.862" gradientUnits="objectBoundingBox">
      <stop offset="0" stop-color="#e530a8"/>
      <stop offset="1" stop-color="#bc7ff9"/>
    </linearGradient>
    <filter id="污水处理-2" x="193.872" y="200.716" width="64.504" height="59.079" filterUnits="userSpaceOnUse">
      <feOffset dy="3" input="SourceAlpha"/>
      <feGaussianBlur stdDeviation="3" result="blur-6"/>
      <feFlood flood-color="#f09" flood-opacity="0.188"/>
      <feComposite operator="in" in2="blur-6"/>
      <feComposite in="SourceGraphic"/>
    </filter>
    <filter id="污水处理-3" x="193.872" y="16.716" width="64.504" height="59.079" filterUnits="userSpaceOnUse">
      <feOffset dy="3" input="SourceAlpha"/>
      <feGaussianBlur stdDeviation="3" result="blur-7"/>
      <feFlood flood-color="#01f" flood-opacity="0.161"/>
      <feComposite operator="in" in2="blur-7"/>
      <feComposite in="SourceGraphic"/>
    </filter>
    <linearGradient id="linear-gradient-8" x1="0.5" x2="0.5" y2="0.92" gradientUnits="objectBoundingBox">
      <stop offset="0" stop-color="#d92525"/>
      <stop offset="1" stop-color="#ffd500"/>
    </linearGradient>
    <linearGradient id="linear-gradient-9" x1="0.5" y1="1" x2="0.5" gradientUnits="objectBoundingBox">
      <stop offset="0" stop-color="#25d94b"/>
      <stop offset="1" stop-color="#bcd800"/>
    </linearGradient>
    <linearGradient id="linear-gradient-10" x1="1" y1="0.636" x2="0" y2="0.623" gradientUnits="objectBoundingBox">
      <stop offset="0" stop-color="#8154ff"/>
      <stop offset="1" stop-color="#00a8ff"/>
    </linearGradient>
    <filter id="能耗" x="19.284" y="190.738" width="53" height="72.639" filterUnits="userSpaceOnUse">
      <feOffset dy="3" input="SourceAlpha"/>
      <feGaussianBlur stdDeviation="3" result="blur-8"/>
      <feFlood flood-color="#01f" flood-opacity="0.161"/>
      <feComposite operator="in" in2="blur-8"/>
      <feComposite in="SourceGraphic"/>
    </filter>
    <filter id="联合_139" x="13.286" y="277.738" width="56.459" height="72.639" filterUnits="userSpaceOnUse">
      <feOffset dy="3" input="SourceAlpha"/>
      <feGaussianBlur stdDeviation="3" result="blur-9"/>
      <feFlood flood-color="#01f" flood-opacity="0.161"/>
      <feComposite operator="in" in2="blur-9"/>
      <feComposite in="SourceGraphic"/>
    </filter>
    <linearGradient id="linear-gradient-12" y1="0.5" x2="1.172" y2="0.465" gradientUnits="objectBoundingBox">
      <stop offset="0" stop-color="#aedbfe"/>
      <stop offset="1" stop-color="#228ee1"/>
    </linearGradient>
    <filter id="路径_6078" x="100.622" y="203.466" width="61.223" height="49.907" filterUnits="userSpaceOnUse">
      <feOffset dy="3" input="SourceAlpha"/>
      <feGaussianBlur stdDeviation="3" result="blur-10"/>
      <feFlood flood-color="#269ffb" flood-opacity="0.188"/>
      <feComposite operator="in" in2="blur-10"/>
      <feComposite in="SourceGraphic"/>
    </filter>
    <filter id="路径_6079" x="108.175" y="195.346" width="48.91" height="29.758" filterUnits="userSpaceOnUse">
      <feOffset dy="3" input="SourceAlpha"/>
      <feGaussianBlur stdDeviation="3" result="blur-11"/>
      <feFlood flood-color="#06f" flood-opacity="0.239"/>
      <feComposite operator="in" in2="blur-11"/>
      <feComposite in="SourceGraphic"/>
    </filter>
    <linearGradient id="linear-gradient-14" x1="1" y1="0.636" x2="0" y2="0.623" gradientUnits="objectBoundingBox">
      <stop offset="0" stop-color="#2f8eec"/>
      <stop offset="1" stop-color="#20c990"/>
    </linearGradient>
    <filter id="联合_138" x="200.421" y="293.324" width="44.953" height="43.469" filterUnits="userSpaceOnUse">
      <feOffset dy="3" input="SourceAlpha"/>
      <feGaussianBlur stdDeviation="3" result="blur-12"/>
      <feFlood flood-color="#01f" flood-opacity="0.161"/>
      <feComposite operator="in" in2="blur-12"/>
      <feComposite in="SourceGraphic"/>
    </filter>
    <filter id="联合_138-2" x="100.423" y="283.325" width="62.952" height="60.469" filterUnits="userSpaceOnUse">
      <feOffset dy="3" input="SourceAlpha"/>
      <feGaussianBlur stdDeviation="3" result="blur-13"/>
      <feFlood flood-color="#01f" flood-opacity="0.161"/>
      <feComposite operator="in" in2="blur-13"/>
      <feComposite in="SourceGraphic"/>
    </filter>
    <filter id="排除_27" x="103.346" y="373.315" width="56.961" height="63.052" filterUnits="userSpaceOnUse">
      <feOffset dy="3" input="SourceAlpha"/>
      <feGaussianBlur stdDeviation="3" result="blur-14"/>
      <feFlood flood-color="#01f" flood-opacity="0.161"/>
      <feComposite operator="in" in2="blur-14"/>
      <feComposite in="SourceGraphic"/>
    </filter>
    <filter id="排除_27-2" x="19.051" y="375.088" width="56.83" height="56.912" filterUnits="userSpaceOnUse">
      <feOffset dy="3" input="SourceAlpha"/>
      <feGaussianBlur stdDeviation="3" result="blur-15"/>
      <feFlood flood-color="#01f" flood-opacity="0.161"/>
      <feComposite operator="in" in2="blur-15"/>
      <feComposite in="SourceGraphic"/>
    </filter>
    <filter id="能耗-2" x="286.873" y="202.575" width="41.777" height="55.119" filterUnits="userSpaceOnUse">
      <feOffset dy="3" input="SourceAlpha"/>
      <feGaussianBlur stdDeviation="3" result="blur-16"/>
      <feFlood flood-color="#01f" flood-opacity="0.161"/>
      <feComposite operator="in" in2="blur-16"/>
      <feComposite in="SourceGraphic"/>
    </filter>
    <linearGradient id="linear-gradient-19" x1="1" y1="0.636" x2="0" y2="0.623" gradientUnits="objectBoundingBox">
      <stop offset="0" stop-color="#2f8eec"/>
      <stop offset="1" stop-color="#28f3af"/>
    </linearGradient>
    <filter id="药品" x="277.023" y="283.519" width="64.952" height="64.952" filterUnits="userSpaceOnUse">
      <feOffset dy="3" input="SourceAlpha"/>
      <feGaussianBlur stdDeviation="3" result="blur-17"/>
      <feFlood flood-color="#01f" flood-opacity="0.161"/>
      <feComposite operator="in" in2="blur-17"/>
      <feComposite in="SourceGraphic"/>
    </filter>
  </defs>
  <g id="ShuiChang_web_icon" transform="translate(-13 -19)">
    <g id="组_5341" data-name="组 5341" opacity="0.13">
      <g id="组_5339" data-name="组 5339" transform="translate(1 -1)">
        <rect id="矩形_2659" data-name="矩形 2659" width="1" height="446" transform="translate(12 20)"/>
        <rect id="矩形_2659-2" data-name="矩形 2659" width="1" height="446" transform="translate(101 20)"/>
        <rect id="矩形_2659-3" data-name="矩形 2659" width="1" height="446" transform="translate(190 20)"/>
        <rect id="矩形_2659-4" data-name="矩形 2659" width="1" height="446" transform="translate(279 20)"/>
        <rect id="矩形_2659-5" data-name="矩形 2659" width="1" height="446" transform="translate(368 20)"/>
        <rect id="矩形_2659-6" data-name="矩形 2659" width="1" height="446" transform="translate(457 20)"/>
      </g>
      <g id="组_5342" data-name="组 5342" transform="translate(479 7) rotate(90)">
        <rect id="矩形_2659-7" data-name="矩形 2659" width="1" height="446" transform="translate(12 20)"/>
        <rect id="矩形_2659-8" data-name="矩形 2659" width="1" height="446" transform="translate(101 20)"/>
        <rect id="矩形_2659-9" data-name="矩形 2659" width="1" height="446" transform="translate(190 20)"/>
        <rect id="矩形_2659-10" data-name="矩形 2659" width="1" height="446" transform="translate(279 20)"/>
        <rect id="矩形_2659-11" data-name="矩形 2659" width="1" height="446" transform="translate(368 20)"/>
        <rect id="矩形_2659-12" data-name="矩形 2659" width="1" height="446" transform="translate(457 20)"/>
      </g>
    </g>
    <g id="水" transform="translate(121.827 156.335)">
      <g transform="matrix(1, 0, 0, 1, -108.83, -137.33)" filter="url(#联合_132)">
        <path id="联合_132-3" data-name="联合 132" d="M4106.614,10629.618c0-3.582,1.807-8.187,5.033-13.69,1.286-2.189,2.78-4.485,4.437-6.848q3.04-4.314,6.364-8.42,1.319-1.635,2.689-3.234l.214-.248,1.323-1.513,1.326,1.513.214.248c.171.2.369.431.591.692.633.751,1.339,1.6,2.1,2.542q3.324,4.1,6.364,8.42c1.657,2.362,3.148,4.658,4.434,6.848,3.229,5.5,5.036,10.108,5.036,13.69a20.066,20.066,0,1,1-40.122,0Zm18.568-26.747q-3.248,4.009-6.22,8.229c-1.6,2.288-3.047,4.5-4.282,6.609-2.932,5-4.549,9.123-4.549,11.908a16.55,16.55,0,1,0,33.087,0c0-2.785-1.617-6.909-4.552-11.908-1.232-2.105-2.676-4.321-4.282-6.609q-2.967-4.217-6.217-8.229-.741-.914-1.494-1.817C4126.208,10601.612,4125.708,10602.222,4125.182,10602.871Zm1.491,41.164h0Zm-13.995-14.046c0-7.757,7.272-3.827,14,0,2.994,1.705,6.088.369,8.6-.968,3.151-1.673,5.394-3.346,5.394.968a14,14,0,1,1-27.992,0Zm-8.505-17.4a5.722,5.722,0,0,1,1.6-3.269,18.079,18.079,0,0,1,1.481-1.625l.606-.583.61.583a19.323,19.323,0,0,1,1.48,1.622,12.035,12.035,0,0,1,.882,1.232,4,4,0,0,1,.719,2.039,3.69,3.69,0,1,1-7.38,0Zm2.967-2.165a4.845,4.845,0,0,0-1.208,2.165,1.931,1.931,0,1,0,3.862,0,2.594,2.594,0,0,0-.457-1.117,10.354,10.354,0,0,0-.754-1.048q-.344-.429-.722-.831C4107.613,10609.863,4107.373,10610.144,4107.14,10610.427Zm30.1-5.854c0-1.28.847-2.8,2.261-4.552a27.348,27.348,0,0,1,2.144-2.35l.607-.582.609.582.192.188a28.121,28.121,0,0,1,1.951,2.162,17.242,17.242,0,0,1,1.267,1.767,5.545,5.545,0,0,1,.995,2.785,5.013,5.013,0,1,1-10.026,0Zm3.629-3.445c-1.168,1.443-1.871,2.705-1.871,3.445a3.254,3.254,0,1,0,6.508,0,4.124,4.124,0,0,0-.735-1.865,15.362,15.362,0,0,0-1.136-1.58q-.658-.81-1.374-1.561Q4141.528,10600.313,4140.869,10601.128Z" transform="translate(-4079.57 -10485.15)" fill="url(#linear-gradient)"/>
      </g>
    </g>
    <g id="水-2" data-name="水" transform="translate(-78.173 20.335)">
      <g transform="matrix(1, 0, 0, 1, 91.17, -1.33)" filter="url(#联合_132-2)">
        <path id="联合_132-4" data-name="联合 132" d="M4106.614,10629.618c0-3.582,1.807-8.187,5.033-13.69,1.286-2.189,2.78-4.485,4.437-6.848q3.04-4.314,6.364-8.42,1.319-1.635,2.689-3.234l.214-.248,1.323-1.513,1.326,1.513.214.248c.171.2.369.431.591.692.633.751,1.339,1.6,2.1,2.542q3.324,4.1,6.364,8.42c1.657,2.362,3.148,4.658,4.434,6.848,3.229,5.5,5.036,10.108,5.036,13.69a20.066,20.066,0,1,1-40.122,0Zm18.568-26.747q-3.248,4.009-6.22,8.229c-1.6,2.288-3.047,4.5-4.282,6.609-2.932,5-4.549,9.123-4.549,11.908a16.55,16.55,0,1,0,33.087,0c0-2.785-1.617-6.909-4.552-11.908-1.232-2.105-2.676-4.321-4.282-6.609q-2.967-4.217-6.217-8.229-.741-.914-1.494-1.817C4126.208,10601.612,4125.708,10602.222,4125.182,10602.871Zm1.491,41.164h0Zm-13.995-14.046c0-7.757,7.272-3.827,14,0,2.994,1.705,6.088.369,8.6-.968,3.151-1.673,5.394-3.346,5.394.968a14,14,0,1,1-27.992,0Zm-8.505-17.4a5.722,5.722,0,0,1,1.6-3.269,18.079,18.079,0,0,1,1.481-1.625l.606-.583.61.583a19.323,19.323,0,0,1,1.48,1.622,12.035,12.035,0,0,1,.882,1.232,4,4,0,0,1,.719,2.039,3.69,3.69,0,1,1-7.38,0Zm2.967-2.165a4.845,4.845,0,0,0-1.208,2.165,1.931,1.931,0,1,0,3.862,0,2.594,2.594,0,0,0-.457-1.117,10.354,10.354,0,0,0-.754-1.048q-.344-.429-.722-.831C4107.613,10609.863,4107.373,10610.144,4107.14,10610.427Zm30.1-5.854c0-1.28.847-2.8,2.261-4.552a27.348,27.348,0,0,1,2.144-2.35l.607-.582.609.582.192.188a28.121,28.121,0,0,1,1.951,2.162,17.242,17.242,0,0,1,1.267,1.767,5.545,5.545,0,0,1,.995,2.785,5.013,5.013,0,1,1-10.026,0Zm3.629-3.445c-1.168,1.443-1.871,2.705-1.871,3.445a3.254,3.254,0,1,0,6.508,0,4.124,4.124,0,0,0-.735-1.865,15.362,15.362,0,0,0-1.136-1.58q-.658-.81-1.374-1.561Q4141.528,10600.313,4140.869,10601.128Z" transform="translate(-4081.57 -10578.15)" fill="url(#linear-gradient-2)"/>
      </g>
    </g>
    <g transform="matrix(1, 0, 0, 1, 13, 19)" filter="url(#装修_家居_下水_水龙头_面性)">
      <path id="装修_家居_下水_水龙头_面性-3" data-name="装修 家居 下水 水龙头 面性" d="M46.363,93.857V91.424H41.042a3.046,3.046,0,0,1,0-6.09h13a3.046,3.046,0,0,1,0,6.089H48.722v2.435H50.4a5.43,5.43,0,0,1,5.062,3.653H67.427a9.2,9.2,0,0,1,9.052,9.308V113.6a3.092,3.092,0,0,1,1.758,2.784,3.024,3.024,0,0,1-2.959,3.044H64.639a3.046,3.046,0,0,1,0-6.089v-.26a.979.979,0,0,0-.987-1H55.458a5.429,5.429,0,0,1-5.062,3.651H44.689a5.429,5.429,0,0,1-5.062-3.651H31a2.408,2.408,0,0,1-2.36-2.436v-9.7A2.408,2.408,0,0,1,31,97.51h8.623a5.429,5.429,0,0,1,5.062-3.651h1.674Zm28.916,21.962H64.638a.618.618,0,0,0-.6.609.589.589,0,0,0,.6.609H75.278a.618.618,0,0,0,.6-.609.59.59,0,0,0-.6-.609ZM54.042,87.768h-13a.618.618,0,0,0-.6.609.59.59,0,0,0,.6.609h13a.618.618,0,0,0,.6-.609A.69.69,0,0,0,54.042,87.768ZM67.6,126.735a1.17,1.17,0,0,1-1.158-1.217v-3.654a1.16,1.16,0,1,1,2.316,0v3.654A1.2,1.2,0,0,1,67.6,126.735Zm3.561,2.392A1.171,1.171,0,0,1,70,127.909v-2.435a1.16,1.16,0,1,1,2.316,0v2.435A1.173,1.173,0,0,1,71.16,129.127Zm3.517-2.392a1.172,1.172,0,0,1-1.158-1.217v-2.436a1.16,1.16,0,1,1,2.316,0v2.436A1.169,1.169,0,0,1,74.677,126.735Z" transform="translate(78.88 25.67)" fill="url(#linear-gradient)"/>
    </g>
    <g transform="matrix(1, 0, 0, 1, 13, 19)" filter="url(#装修_家居_下水_水龙头_面性-2)">
      <path id="装修_家居_下水_水龙头_面性-4" data-name="装修 家居 下水 水龙头 面性" d="M46.363,93.857V91.424H41.042a3.046,3.046,0,0,1,0-6.09h13a3.046,3.046,0,0,1,0,6.089H48.722v2.435H50.4a5.43,5.43,0,0,1,5.062,3.653H67.427a9.2,9.2,0,0,1,9.052,9.308V113.6a3.092,3.092,0,0,1,1.758,2.784,3.024,3.024,0,0,1-2.959,3.044H64.639a3.046,3.046,0,0,1,0-6.089v-.26a.979.979,0,0,0-.987-1H55.458a5.429,5.429,0,0,1-5.062,3.651H44.689a5.429,5.429,0,0,1-5.062-3.651H31a2.408,2.408,0,0,1-2.36-2.436v-9.7A2.408,2.408,0,0,1,31,97.51h8.623a5.429,5.429,0,0,1,5.062-3.651h1.674Zm28.916,21.962H64.638a.618.618,0,0,0-.6.609.589.589,0,0,0,.6.609H75.278a.618.618,0,0,0,.6-.609.59.59,0,0,0-.6-.609ZM54.042,87.768h-13a.618.618,0,0,0-.6.609.59.59,0,0,0,.6.609h13a.618.618,0,0,0,.6-.609A.69.69,0,0,0,54.042,87.768ZM67.6,126.735a1.17,1.17,0,0,1-1.158-1.217v-3.654a1.16,1.16,0,1,1,2.316,0v3.654A1.2,1.2,0,0,1,67.6,126.735Zm3.561,2.392A1.171,1.171,0,0,1,70,127.909v-2.435a1.16,1.16,0,1,1,2.316,0v2.435A1.173,1.173,0,0,1,71.16,129.127Zm3.517-2.392a1.172,1.172,0,0,1-1.158-1.217v-2.436a1.16,1.16,0,1,1,2.316,0v2.436A1.169,1.169,0,0,1,74.677,126.735Z" transform="translate(78.88 -64.33)" fill="url(#linear-gradient-2)"/>
    </g>
    <g transform="matrix(1, 0, 0, 1, 13, 19)" filter="url(#污水处理)">
      <path id="污水处理-4" data-name="污水处理" d="M111.7,133.983v-.775a1.55,1.55,0,0,1,1.55-1.55h4.65a1.55,1.55,0,0,1,1.55,1.55v15.5a1.55,1.55,0,0,1-1.55,1.55h-4.65a1.55,1.55,0,0,1-1.55-1.55v-.775h-9.3V133.983Zm27.9,21.857a7.769,7.769,0,0,0-6.588,1.705,7.717,7.717,0,0,0-4.263-1.821v-5.464a3.875,3.875,0,0,0-3.875-3.875H121V135.533h7.751A10.851,10.851,0,0,1,139.6,146.384v9.456Zm-30.173,16.9h-5.48v-9.3a5.425,5.425,0,0,1,10.076-2.8,5.428,5.428,0,0,1,9.3,0,5.427,5.427,0,0,1,9.688.779,5.427,5.427,0,0,1,10.463,2.018,6.193,6.193,0,0,0-5.038,2.585,6.2,6.2,0,0,0-9.688-.486,6.2,6.2,0,0,0-9.3,0,6.2,6.2,0,0,0-10.8,3.327h.782a5.427,5.427,0,0,1,10.021-2.021,5.427,5.427,0,0,1,9.3,0,5.427,5.427,0,0,1,9.688.779,5.426,5.426,0,1,1,9.491,5.118h-38.5Z" transform="translate(100.47 -17.94)" fill="url(#linear-gradient)"/>
    </g>
    <g transform="matrix(1, 0, 0, 1, 13, 19)" filter="url(#污水处理-2)">
      <path id="污水处理-5" data-name="污水处理" d="M111.7,133.983v-.775a1.55,1.55,0,0,1,1.55-1.55h4.65a1.55,1.55,0,0,1,1.55,1.55v15.5a1.55,1.55,0,0,1-1.55,1.55h-4.65a1.55,1.55,0,0,1-1.55-1.55v-.775h-9.3V133.983Zm27.9,21.857a7.769,7.769,0,0,0-6.588,1.705,7.717,7.717,0,0,0-4.263-1.821v-5.464a3.875,3.875,0,0,0-3.875-3.875H121V135.533h7.751A10.851,10.851,0,0,1,139.6,146.384v9.456Zm-30.173,16.9h-5.48v-9.3a5.425,5.425,0,0,1,10.076-2.8,5.428,5.428,0,0,1,9.3,0,5.427,5.427,0,0,1,9.688.779,5.427,5.427,0,0,1,10.463,2.018,6.193,6.193,0,0,0-5.038,2.585,6.2,6.2,0,0,0-9.688-.486,6.2,6.2,0,0,0-9.3,0,6.2,6.2,0,0,0-10.8,3.327h.782a5.427,5.427,0,0,1,10.021-2.021,5.427,5.427,0,0,1,9.3,0,5.427,5.427,0,0,1,9.688.779,5.426,5.426,0,1,1,9.491,5.118h-38.5Z" transform="translate(100.47 75.06)" fill="url(#linear-gradient-6)"/>
    </g>
    <g transform="matrix(1, 0, 0, 1, 13, 19)" filter="url(#污水处理-3)">
      <path id="污水处理-6" data-name="污水处理" d="M111.7,133.983v-.775a1.55,1.55,0,0,1,1.55-1.55h4.65a1.55,1.55,0,0,1,1.55,1.55v15.5a1.55,1.55,0,0,1-1.55,1.55h-4.65a1.55,1.55,0,0,1-1.55-1.55v-.775h-9.3V133.983Zm27.9,21.857a7.769,7.769,0,0,0-6.588,1.705,7.717,7.717,0,0,0-4.263-1.821v-5.464a3.875,3.875,0,0,0-3.875-3.875H121V135.533h7.751A10.851,10.851,0,0,1,139.6,146.384v9.456Zm-30.173,16.9h-5.48v-9.3a5.425,5.425,0,0,1,10.076-2.8,5.428,5.428,0,0,1,9.3,0,5.427,5.427,0,0,1,9.688.779,5.427,5.427,0,0,1,10.463,2.018,6.193,6.193,0,0,0-5.038,2.585,6.2,6.2,0,0,0-9.688-.486,6.2,6.2,0,0,0-9.3,0,6.2,6.2,0,0,0-10.8,3.327h.782a5.427,5.427,0,0,1,10.021-2.021,5.427,5.427,0,0,1,9.3,0,5.427,5.427,0,0,1,9.688.779,5.426,5.426,0,1,1,9.491,5.118h-38.5Z" transform="translate(100.47 -108.94)" fill="url(#linear-gradient-2)"/>
    </g>
    <g id="组_5095" data-name="组 5095" transform="translate(-620 -45)">
      <path id="矩形_5_拷贝" data-name="矩形 5 拷贝" d="M48.75,30.375V1.625a1.625,1.625,0,1,1,3.25,0v28.75a1.625,1.625,0,1,1-3.25,0Zm-4.874-5.423V1.625a1.625,1.625,0,1,1,3.25,0V24.952a1.625,1.625,0,0,1-3.25,0ZM39,22.24V1.625a1.625,1.625,0,1,1,3.25,0V22.24a1.625,1.625,0,0,1-3.25,0Zm-4.875-2.713V1.625a1.625,1.625,0,1,1,3.25,0v17.9a1.625,1.625,0,1,1-3.25,0Zm-9.75,0V1.625a1.625,1.625,0,1,1,3.25,0v17.9a1.625,1.625,0,1,1-3.25,0Zm-4.875,0V1.625a1.625,1.625,0,1,1,3.25,0v17.9a1.625,1.625,0,1,1-3.25,0Zm9.751-3.253V1.625a1.625,1.625,0,1,1,3.25,0V16.274a1.625,1.625,0,0,1-3.25,0ZM14.626,14.1V1.625a1.625,1.625,0,1,1,3.25,0V14.1a1.625,1.625,0,1,1-3.25,0Zm-4.875,0V1.625a1.625,1.625,0,1,1,3.25,0V14.1a1.625,1.625,0,1,1-3.25,0ZM4.875,7.053V1.625a1.625,1.625,0,1,1,3.25,0h0V7.053a1.625,1.625,0,0,1-3.25,0ZM0,5.968V1.625a1.625,1.625,0,1,1,3.25,0V5.968a1.625,1.625,0,1,1-3.25,0Z" transform="translate(978 214) rotate(180)" fill="url(#linear-gradient-8)"/>
      <path id="arrow-thin-right" d="M13.425,5.71,8.952,10.195A.718.718,0,0,1,7.936,9.181L11.188,5.92H.718a.718.718,0,0,1,0-1.435h10.47L7.936,1.224A.718.718,0,1,1,8.952.211L13.425,4.7a.718.718,0,0,1,0,1.013" transform="translate(918.045 200) rotate(90)" fill="#ff5656"/>
    </g>
    <g id="组_5096" data-name="组 5096" transform="translate(-620 -136)">
      <path id="矩形_5_拷贝-2" data-name="矩形 5 拷贝" d="M6521.75,934.686V905.936a1.625,1.625,0,0,1,3.25,0v28.751a1.625,1.625,0,0,1-3.25,0Zm-4.875,0V911.359a1.625,1.625,0,0,1,3.25,0v23.327a1.625,1.625,0,0,1-3.25,0Zm-4.875,0V914.071a1.625,1.625,0,0,1,3.25,0v20.615a1.625,1.625,0,0,1-3.25,0Zm-4.875,0v-17.9a1.625,1.625,0,0,1,3.251,0v17.9a1.625,1.625,0,0,1-3.251,0Zm-4.875,0v-14.65a1.625,1.625,0,0,1,3.251,0v14.65a1.625,1.625,0,0,1-3.251,0Zm-4.875,0v-17.9a1.625,1.625,0,0,1,3.251,0v17.9a1.625,1.625,0,0,1-3.251,0Zm-4.875,0v-17.9a1.625,1.625,0,0,1,3.251,0v17.9a1.625,1.625,0,0,1-3.251,0Zm-4.875,0v-12.48a1.625,1.625,0,0,1,3.251,0v12.48a1.625,1.625,0,0,1-3.251,0Zm-4.875,0v-12.48a1.625,1.625,0,0,1,3.25,0v12.48a1.625,1.625,0,0,1-3.25,0Zm-3.291,1.624a1.624,1.624,0,0,1-1.584-1.624v-5.429a1.625,1.625,0,0,1,3.25,0v5.429a1.624,1.624,0,0,1-1.583,1.624h-.084ZM6473,934.686v-4.344a1.625,1.625,0,0,1,3.25,0v4.344a1.625,1.625,0,0,1-3.25,0Z" transform="translate(-5547 -722.311)" fill="url(#linear-gradient-9)"/>
      <path id="arrow-thin-right-2" data-name="arrow-thin-right" d="M13.425,5.71,8.952,10.195A.718.718,0,0,1,7.936,9.181L11.188,5.92H.718a.718.718,0,0,1,0-1.435h10.47L7.936,1.224A.718.718,0,1,1,8.952.211L13.425,4.7a.718.718,0,0,1,0,1.013" transform="translate(907.639 213.635) rotate(-90)" fill="#53bb3a"/>
    </g>
    <g transform="matrix(1, 0, 0, 1, 13, 19)" filter="url(#能耗)">
      <path id="能耗-3" data-name="能耗" d="M266.825,127.772H260.38a1.772,1.772,0,0,1-1.765-1.914l1.559-19.4a1.772,1.772,0,0,0-3.131-1.271L234,133.056a1.772,1.772,0,0,0,1.365,2.9h6.445a1.772,1.772,0,0,1,1.765,1.914l-1.559,19.4a1.772,1.772,0,0,0,3.131,1.271l23.041-27.868a1.772,1.772,0,0,0-1.365-2.9Z" transform="translate(-205.31 92.19)" opacity="0.8" fill="url(#linear-gradient-10)"/>
    </g>
    <g transform="matrix(1, 0, 0, 1, 13, 19)" filter="url(#联合_139)">
      <path id="联合_139-2" data-name="联合 139" d="M10355.521,650.51a1.78,1.78,0,0,1-1.1-1.783l1.562-19.4a1.772,1.772,0,0,0-1.768-1.913h-6.444a1.772,1.772,0,0,1-1.363-2.9l23.041-27.868a1.77,1.77,0,0,1,3.13,1.269l-1.559,19.4a1.772,1.772,0,0,0,1.765,1.913h6.445v0a1.772,1.772,0,0,1,1.365,2.9L10357.554,650a1.776,1.776,0,0,1-2.033.513Zm22.226-1.871V637.531h-3.831v-2.346h10.545v2.346h-3.839v11.107Z" transform="translate(-10323.71 -312.26)" opacity="0.8" fill="url(#linear-gradient-10)"/>
    </g>
    <g id="地铁预警-淤泥厚度" transform="translate(24.895 89.537)">
      <g transform="matrix(1, 0, 0, 1, -11.89, -70.54)" filter="url(#路径_6078)">
        <path id="路径_6078-2" data-name="路径 6078" d="M193.756,333.4l40.158-.137c1.495-.225,1.437-.83,1.473-2.045,0-7.992.324-14.389,0-21.309l.072-4.334c0-.647,0-.934-.814-1.425l-2.562-1.03a5.448,5.448,0,0,0-4.969.431l-2.586,1.712c-.192.132-.647.371-.85.479a3.448,3.448,0,0,1-3.688-.323l-1.712-.934c-2.227-1.125-2.395-.575-4.023.575a14.467,14.467,0,0,1-2.059,1.2l-.3.132-4.31,1.437c-2.119.5-2.395.156-3.376-.8l-2.107-3.161c-.072-.12-.934-1.125-1.006-1.2a4.107,4.107,0,0,0-.563-.838c-.611-.455-1.281-.587-2.167.539A6.346,6.346,0,0,0,197,305.088c-.216.754-.994.479-3.029.97-1.2.3-1.09,1.2-1.533,2.395l-.132.563v22.941A1.449,1.449,0,0,0,193.756,333.4Z" transform="translate(-82.69 -92.03)" fill="url(#linear-gradient-12)"/>
      </g>
      <g transform="matrix(1, 0, 0, 1, -11.89, -70.54)" filter="url(#路径_6079)">
        <path id="路径_6079-2" data-name="路径 6079" d="M185.867,145.242a2.023,2.023,0,0,0-4.047,0,15.844,15.844,0,0,0,2.023,4.33A15.924,15.924,0,0,0,185.867,145.242Zm19.514-2.561a3.258,3.258,0,1,0-5.666-3.217c-.89,1.578-.627,7.729-.627,7.729S204.51,144.259,205.38,142.681Zm-11.773.85a2.054,2.054,0,1,0-4.047-.708,16.189,16.189,0,0,0,1.234,4.613A15.58,15.58,0,0,0,193.608,143.53Zm-14.774,2.865a15.9,15.9,0,0,0,0-4.775,2.023,2.023,0,1,0-3.622,1.74A15.782,15.782,0,0,0,178.834,146.395Z" transform="translate(-57.72 63.53)" fill="url(#linear-gradient-12)"/>
      </g>
    </g>
    <g transform="matrix(1, 0, 0, 1, 13, 19)" filter="url(#联合_138)">
      <path id="联合_138-3" data-name="联合 138" d="M10346.288,290.285H10343v-5.577a19.574,19.574,0,0,0,8.832-3.253,3.495,3.495,0,0,0,5.836.011,3.529,3.529,0,0,0,6.4.05,3.255,3.255,0,0,1,2.639,3.192,3.72,3.72,0,0,1-6.042,0,3.717,3.717,0,0,1-5.576,0,5.187,5.187,0,0,1-6.671.165,3.716,3.716,0,0,0-2.6,3.088h.471a14.892,14.892,0,0,0,8.8-2.787,3.492,3.492,0,0,0,5.836.007,3.528,3.528,0,0,0,6.395.05,3.257,3.257,0,0,1,2.058,5.053Zm7.392-11.416-.032-.014-6.546-3.493a2.724,2.724,0,0,1-.621-.459,2.646,2.646,0,0,1-.737-1.456,2.628,2.628,0,0,1,3.836-2.719l6.556,3.511.014.011a2.611,2.611,0,0,1,1.181,1.811,2.586,2.586,0,0,1-.28,1.643,2.622,2.622,0,0,1-3.369,1.166Zm-6.869-6.642a1.744,1.744,0,0,0,.3,2.044,1.693,1.693,0,0,0,.412.3l3.264,1.743,1.633-3.059-3.264-1.747a1.731,1.731,0,0,0-2.347.714Zm10.076,2.2-5.252-5.265-.011-.011a2.627,2.627,0,0,1,3.7-3.7l.025.022,5.251,5.243a2.628,2.628,0,0,1-3.717,3.716Zm-1.984-3.249,2.617,2.618a1.735,1.735,0,1,0,2.455-2.453l-2.62-2.615Z" transform="translate(-10133.58 34.51)" opacity="0.8" fill="url(#linear-gradient-14)"/>
    </g>
    <g transform="matrix(1, 0, 0, 1, 13, 19)" filter="url(#联合_138-2)">
      <path id="联合_138-4" data-name="联合 138" d="M10348.48,307.286H10343v-9.3a32.453,32.453,0,0,0,14.727-5.425,5.824,5.824,0,0,0,9.734.018,5.884,5.884,0,0,0,10.666.083,5.426,5.426,0,0,1,4.4,5.324,6.2,6.2,0,0,1-10.076,0,6.2,6.2,0,0,1-9.3,0,8.653,8.653,0,0,1-11.124.276,6.2,6.2,0,0,0-4.328,5.149h.782a24.79,24.79,0,0,0,14.67-4.648,5.828,5.828,0,0,0,9.737.016,5.886,5.886,0,0,0,10.668.083,5.426,5.426,0,0,1,3.426,8.426Zm12.331-19.037-.052-.023-10.916-5.824a4.359,4.359,0,0,1-2.266-3.194,4.338,4.338,0,0,1,.467-2.74,4.389,4.389,0,0,1,5.932-1.8l10.931,5.861.023.016a4.277,4.277,0,0,1,.738.592,4.412,4.412,0,0,1,1.23,2.427,4.378,4.378,0,0,1-6.088,4.685Zm-11.455-11.08a2.9,2.9,0,0,0,1.187,3.921l5.445,2.9,2.725-5.1-5.44-2.915a2.893,2.893,0,0,0-3.916,1.186Zm16.8,3.676-8.762-8.778-.019-.021a4.382,4.382,0,0,1,6.179-6.179l.042.039,8.76,8.739v0a4.383,4.383,0,0,1-6.2,6.2Zm-3.306-5.42,4.359,4.369a2.9,2.9,0,0,0,4.1-4.1l-4.37-4.359Z" transform="translate(-10233.58 24.51)" opacity="0.8" fill="url(#linear-gradient-14)"/>
    </g>
    <g id="试剂分析" transform="translate(56.077 398.315)" opacity="0.8">
      <g transform="matrix(1, 0, 0, 1, -43.08, -379.32)" filter="url(#排除_27)">
        <path id="排除_27-3" data-name="排除 27" d="M34.642,45.053H4.321c-1.92,0-3.327-.635-3.962-1.788s-.421-2.689.608-4.317L13.693,15.277V3.039H11.457c-.038,0-.077,0-.115,0A1.519,1.519,0,0,1,9.823,1.491,1.526,1.526,0,0,1,11.141,0H28.365l.287.23V.345a1.5,1.5,0,0,1,.659,1.175,1.521,1.521,0,0,1-1.519,1.519H25.357V15.277L38,38.948c1.029,1.641,1.244,3.178.608,4.329S36.563,45.053,34.642,45.053ZM26.667,30.888a3.336,3.336,0,0,0-1.568.394l-8.326,4.462-.018.012a3.324,3.324,0,0,0-.563.452,3.367,3.367,0,0,0-.937,1.848,3.336,3.336,0,0,0,4.638,3.569l.039-.019,8.316-4.435a3.338,3.338,0,0,0-1.58-6.282Zm-15.572.376h0a3.339,3.339,0,0,0,4.721,4.721L22.489,29.3l.014-.017a3.344,3.344,0,0,0,.571-3.388c1.788.045,3.331.134,4.717.272l-5.215-9.859V3.039h-6.19V16.308l-5.417,9.83c1.949-.1,3.794-.175,5.483-.22L11.1,31.264Zm12.471,7.12h0L21.49,34.5l4.143-2.221a2.205,2.205,0,1,1,2.079,3.89l-4.145,2.213Zm-10.11-2.554a2.2,2.2,0,0,1-1.56-3.763l3.327-3.321,3.112,3.112-3.321,3.327A2.19,2.19,0,0,1,13.456,35.829Zm3-9.911,0,0,1.312-1.309.032-.03a3.332,3.332,0,0,1,2.167-.8l.123,0a3.338,3.338,0,0,1,2.986,2.116c-.825-.021-1.726-.032-2.677-.032-1.232,0-2.559.019-3.943.055Z" transform="translate(112.35 379.31)" fill="url(#linear-gradient-14)"/>
      </g>
    </g>
    <g id="试剂分析-2" data-name="试剂分析" transform="translate(-27.923 328.315)" opacity="0.8">
      <g transform="matrix(1, 0, 0, 1, 40.92, -309.32)" filter="url(#排除_27-2)">
        <path id="排除_27-4" data-name="排除 27" d="M19.12,110.686A19.39,19.39,0,0,1,2.475,81.308a20.224,20.224,0,0,1,7.406-7.116A2.588,2.588,0,0,1,11,73.909a1.654,1.654,0,0,1,1.53.95,2.067,2.067,0,0,1-.68,2.687A15.432,15.432,0,0,0,3.7,89.377a2.076,2.076,0,0,1,.391-.061c.074-.006.15-.009.224-.009a2.93,2.93,0,0,1,2.763,1.963H9.387a5.054,5.054,0,0,1,7.862,0h3.118c.713-1.623,1.661-2.446,2.818-2.446A3.516,3.516,0,0,1,26.4,91.271h1.535c1.375-2.576,2.989-3.883,4.8-3.883s3.37,1.306,4.649,3.883h1.152A19.415,19.415,0,0,1,19.12,110.686Zm.269-20.839a3.337,3.337,0,0,1-1.7-6.21l.019-.012,8.476-4.169a3.339,3.339,0,0,1,4.75,3.623,3.372,3.372,0,0,1-1,1.815,3.314,3.314,0,0,1-.808.555L20.66,89.592l-.04.018A3.322,3.322,0,0,1,19.388,89.847Zm8.262-9.6a2.179,2.179,0,0,0-.967.225l-4.217,2.075L24.4,86.5l4.222-2.066a2.205,2.205,0,0,0-.976-4.185Zm-13.183,4.48a3.339,3.339,0,0,1-2.277-5.779l6.9-6.421.033-.028a3.341,3.341,0,0,1,2.076-.727c.08,0,.161,0,.241.009a3.338,3.338,0,0,1,2.221,5.584l-.015.016-6.9,6.449A3.326,3.326,0,0,1,14.468,84.728ZM16.4,76.576l-3.441,3.2A2.206,2.206,0,0,0,15.97,83L19.4,79.795Z" transform="translate(28.35 309.31)" fill="url(#linear-gradient-14)"/>
      </g>
    </g>
    <g id="组_4694" data-name="组 4694" transform="translate(378 72)">
      <rect id="矩形_2378" data-name="矩形 2378" width="20" height="20" transform="translate(26 71)" fill="none"/>
      <path id="联合_115" data-name="联合 115" d="M1.227,18.13a1.207,1.207,0,0,1-.867-.372A1.193,1.193,0,0,1,0,16.949V5.117A1.252,1.252,0,0,1,.359,4.3a1.214,1.214,0,0,1,.867-.369H7.435a4.831,4.831,0,0,0,.841,2.728,4.7,4.7,0,0,0,2.089,1.714l1.421,1.785.012.007a.129.129,0,0,0,.053.065.452.452,0,0,0,.32.1.405.405,0,0,0,.279-.164l1.426-1.785a4.73,4.73,0,0,0,1.8-1.321V16.87a1.257,1.257,0,0,1-1.24,1.26Zm6.22-6.844L2.541,16.317a.421.421,0,0,0-.133.307.416.416,0,0,0,.133.307.4.4,0,0,0,.594,0L8.046,11.9l2.725,2.789v.01l.016.01.021.017v.01l1.2,1.232a.428.428,0,0,0,.61,0,.454.454,0,0,0,0-.625l-.913-.935,2.725-2.8A.434.434,0,0,0,13.822,11L11.1,13.788l-2.442-2.5,1.17-1.205a.446.446,0,0,0,0-.608.39.39,0,0,0-.3-.137.424.424,0,0,0-.3.137L8.046,10.668,5.736,8.3V8.3l-.027-.027L3.337,5.848a.4.4,0,0,0-.6,0,.455.455,0,0,0,0,.614L4.816,8.6,1.535,11.975a.434.434,0,0,0,0,.614.427.427,0,0,0,.6,0L5.421,9.22Zm3.51-3.543a.364.364,0,0,0-.186-.137,3.805,3.805,0,0,1-1.8-1.441,3.959,3.959,0,0,1-.68-2.239A3.918,3.918,0,0,1,9.407,1.161l.026-.017a3.75,3.75,0,0,1,5.408.017,4.034,4.034,0,0,1,.438,5.011,3.914,3.914,0,0,1-1.812,1.444.417.417,0,0,0-.187.133L12.132,9.2ZM9.868,3.871a2.291,2.291,0,1,0,4.58,0,2.291,2.291,0,1,0-4.58,0Z" transform="translate(28.045 71.822)" fill="none"/>
      <path id="监控" d="M61.105,115.277v1.981h3.467a.5.5,0,1,1,0,.991H55.657a.5.5,0,0,1,0-.991h3.467v-1.981H52.191a.991.991,0,0,1-.991-.991v-10.9a.991.991,0,0,1,.991-.991H68.039a.991.991,0,0,1,.991.991v10.9a.991.991,0,0,1-.991.991Zm5.19-6.056h0v-1.07H61.659l-.5,1.5-2.853-4.275-.926,2.779h-3.21v1.07h3.923l.5-1.5L61.445,112l.928-2.779Z" transform="translate(-24.654 -29.249)" fill="#fff"/>
    </g>
    <g id="组_4694-2" data-name="组 4694" transform="translate(401 321)">
      <rect id="矩形_2378-2" data-name="矩形 2378" width="20" height="20" fill="none"/>
      <path id="图表_2" data-name="图表 2" d="M71.991,65.687a7.468,7.468,0,1,0,7.467,7.468H71.991Zm1.164-1.164v7.468h7.468A7.468,7.468,0,0,0,73.155,64.524Z" transform="translate(-62.019 -62.019)" fill="#fff"/>
    </g>
    <g id="组_4694-3" data-name="组 4694" transform="translate(378 164)">
      <rect id="矩形_2378-3" data-name="矩形 2378" width="20" height="20" transform="translate(26 71)" fill="none"/>
      <path id="图表-表格" d="M78.726,126H65.133A1.136,1.136,0,0,0,64,127.133V140.46a1.136,1.136,0,0,0,1.133,1.133H78.726a1.136,1.136,0,0,0,1.133-1.133V127.133A1.136,1.136,0,0,0,78.726,126ZM69.1,140.46H65.133v-2.832H69.1Zm0-3.965H65.133v-2.832H69.1Zm0-3.965H65.133V129.7H69.1Zm4.531,7.929h-3.4v-2.832h3.4Zm0-3.965h-3.4v-2.832h3.4Zm0-3.965h-3.4V129.7h3.4Zm5.1,7.929H74.761v-2.832h3.965Zm0-3.965H74.761v-2.832h3.965Zm0-3.965H74.761V129.7h3.965Z" transform="translate(-36.222 -53.149)" fill="#fff"/>
    </g>
    <g id="组_5299" data-name="组 5299" transform="translate(404 49.779)">
      <path id="路径_6015" data-name="路径 6015" d="M-416.739-227.48c3.728,1.392,3.514,2.748,6.907,3.692,1.4.39,4.865-.023,5.72-.178-5.88-.653-6.8-1.991-9.245-4.343a6.092,6.092,0,0,0-6.04-1.484c-2.854.662-4.351,2.3-3.847,5.143.007.033.016.064.023.1C-423.021-226.77-419.839-228.638-416.739-227.48Z" transform="translate(423.341 238.714)" fill="#74af51"/>
      <path id="路径_6016" data-name="路径 6016" d="M-400.27-208.743c-.192.049-.367.071-.533.108a11.071,11.071,0,0,1-5.993-.312l-.086-.029c-2.846-.989-3.931-2.9-6.787-3.069-2.325-.136-3.1.954-3.31,2.034a3.391,3.391,0,0,0,.717,2.715,11.485,11.485,0,0,0,11.1,4.175,11.194,11.194,0,0,0,8.887-8.12A6.325,6.325,0,0,1-400.27-208.743Z" transform="translate(418.405 224.549)" fill="#74af51"/>
      <path id="路径_6017" data-name="路径 6017" d="M-395.371-236.421c-3.728-1.392-3.514-2.748-6.907-3.692-1.4-.39-4.865.023-5.72.178,5.88.653,6.8,1.991,9.245,4.343a6.092,6.092,0,0,0,6.04,1.484c2.854-.662,4.351-2.3,3.847-5.143-.007-.033-.016-.064-.023-.1C-389.089-237.132-392.271-235.263-395.371-236.421Z" transform="translate(411.336 246.803)" fill="#4c67ed"/>
      <path id="路径_6018" data-name="路径 6018" d="M-417.33-265.337c.192-.049.367-.071.533-.108a11.071,11.071,0,0,1,5.993.312l.085.03c2.846.989,3.931,2.9,6.787,3.069,2.326.136,3.1-.954,3.31-2.034a3.391,3.391,0,0,0-.717-2.714,11.485,11.485,0,0,0-11.1-4.175,11.194,11.194,0,0,0-8.887,8.12A6.325,6.325,0,0,1-417.33-265.337Z" transform="translate(421.762 271.146)" fill="#4c67ed"/>
    </g>
    <g transform="matrix(1, 0, 0, 1, 13, 19)" filter="url(#能耗-2)">
      <path id="能耗-4" data-name="能耗" d="M256.17,120.324h-4.379a1.2,1.2,0,0,1-1.2-1.3l1.059-13.179a1.2,1.2,0,0,0-2.127-.863l-15.653,18.932a1.2,1.2,0,0,0,.927,1.971h4.379a1.2,1.2,0,0,1,1.2,1.3l-1.059,13.18a1.2,1.2,0,0,0,2.127.863L257.1,122.3a1.2,1.2,0,0,0-.927-1.971Z" transform="translate(62.28 104.03)" fill="url(#linear-gradient-10)"/>
    </g>
    <g transform="matrix(1, 0, 0, 1, 13, 19)" filter="url(#药品)">
      <path id="药品-2" data-name="药品" d="M30.787,11.523A6.834,6.834,0,0,1,26.3,13.69l-.044,0-19.4.019A6.856,6.856,0,0,1,6.856,0h0L26.212.019l.089,0a6.854,6.854,0,0,1,4.486,11.5ZM16.509,2.336l-9.654-.01a4.529,4.529,0,0,0,0,9.059l9.654-.009ZM3.032,15.9A6.912,6.912,0,0,1,7.077,14.58h0a6.851,6.851,0,0,1,1.473.161l.043.01,18.571,5.61a6.856,6.856,0,1,1-3.979,13.122L4.669,27.849l-.084-.029A6.854,6.854,0,0,1,3.032,15.9Zm20.83,15.354a4.529,4.529,0,0,0,2.629-8.669L17.25,19.8l-2.623,8.651,9.235,2.81Z" transform="translate(286.02 312.59) rotate(-45)" fill="url(#linear-gradient-19)"/>
    </g>
  </g>
</svg>
